<?xml version="1.0" encoding="UTF-8"?>
<!DOCTYPE svg PUBLIC "-//W3C//DTD SVG 1.1//EN" "http://www.w3.org/Graphics/SVG/1.1/DTD/svg11.dtd">
<svg xmlns="http://www.w3.org/2000/svg" version="1.1" width="3000px" height="2000px" style="shape-rendering:geometricPrecision; text-rendering:geometricPrecision; image-rendering:optimizeQuality; fill-rule:evenodd; clip-rule:evenodd" xmlns:xlink="http://www.w3.org/1999/xlink">
<g><path style="opacity:0.847" fill="#00beed" d="M 1301.5,423.5 C 1304.36,423.055 1306.86,423.722 1309,425.5C 1309.67,436.167 1309.67,446.833 1309,457.5C 1305.7,461.451 1302.36,461.451 1299,457.5C 1298.33,446.833 1298.33,436.167 1299,425.5C 1299.99,424.934 1300.83,424.267 1301.5,423.5 Z"/></g>
<g><path style="opacity:0.598" fill="#00c2ee" d="M 1238.5,449.5 C 1235.43,451.569 1233.09,454.236 1231.5,457.5C 1229.1,455.419 1228.93,453.086 1231,450.5C 1233.36,448.354 1235.86,448.021 1238.5,449.5 Z"/></g>
<g><path style="opacity:0.8" fill="#00bbed" d="M 1369.5,448.5 C 1377.24,448.063 1379.74,451.396 1377,458.5C 1371.12,464.707 1365.62,471.207 1360.5,478C 1355.54,479.996 1352.2,478.329 1350.5,473C 1356.65,464.683 1362.99,456.516 1369.5,448.5 Z"/></g>
<g><path style="opacity:0.825" fill="#00c0ee" d="M 1238.5,449.5 C 1245.55,456.057 1251.72,463.39 1257,471.5C 1257.82,475.864 1255.99,478.53 1251.5,479.5C 1243.79,473.122 1237.12,465.788 1231.5,457.5C 1233.09,454.236 1235.43,451.569 1238.5,449.5 Z"/></g>
<g><path style="opacity:0.975" fill="#00bced" d="M 1336.5,484.5 C 1306.17,517.833 1275.83,551.167 1245.5,584.5C 1233.7,564.93 1231.37,544.264 1238.5,522.5C 1250.51,509.824 1262.18,496.824 1273.5,483.5C 1282.89,478.319 1293.06,475.985 1304,476.5C 1315.74,475.976 1326.57,478.643 1336.5,484.5 Z"/></g>
<g><path style="opacity:0.779" fill="#00beee" d="M 1273.5,483.5 C 1262.18,496.824 1250.51,509.824 1238.5,522.5C 1244.9,504.768 1256.57,491.768 1273.5,483.5 Z"/></g>
<g><path style="opacity:0.979" fill="#00b9ed" d="M 1336.5,484.5 C 1357.3,495.892 1369.63,513.392 1373.5,537C 1375.67,571.28 1361,595.947 1329.5,611C 1295.2,621.732 1267.2,612.898 1245.5,584.5C 1275.83,551.167 1306.17,517.833 1336.5,484.5 Z"/></g>
<g><path style="opacity:0.81" fill="#00bfee" d="M 1197.5,511.5 C 1207.24,512.902 1216.91,514.735 1226.5,517C 1230.39,520.202 1230.39,523.535 1226.5,527C 1216.77,526.436 1207.11,525.102 1197.5,523C 1193.79,521.309 1192.62,518.475 1194,514.5C 1195.15,513.364 1196.31,512.364 1197.5,511.5 Z"/></g>
<g><path style="opacity:0.804" fill="#00b7ed" d="M 1405.5,511.5 C 1412.53,510.852 1415.19,513.852 1413.5,520.5C 1412.33,521.584 1411,522.417 1409.5,523C 1401.32,524.446 1393.16,525.946 1385,527.5C 1378.36,526.163 1376.86,522.663 1380.5,517C 1388.96,515.152 1397.29,513.319 1405.5,511.5 Z"/></g>
<g><path style="opacity:0.987" fill="#00b1ec" d="M 1373.5,747.5 C 1327.54,798.799 1281.2,849.799 1234.5,900.5C 1234.5,846.167 1234.5,791.833 1234.5,737.5C 1260.84,709.158 1286.84,680.491 1312.5,651.5C 1332.27,644.623 1352.6,642.289 1373.5,644.5C 1373.5,678.833 1373.5,713.167 1373.5,747.5 Z"/></g>
<g><path style="opacity:0.931" fill="#00b6ec" d="M 1312.5,651.5 C 1286.84,680.491 1260.84,709.158 1234.5,737.5C 1234.33,729.493 1234.5,721.493 1235,713.5C 1253.29,683.379 1279.12,662.712 1312.5,651.5 Z"/></g>
<g><path style="opacity:0.991" fill="#00caef" d="M 917.5,654.5 C 865.167,713.167 812.833,771.833 760.5,830.5C 693.28,867.723 644.613,921.723 614.5,992.5C 560.6,1051.31 506.933,1110.31 453.5,1169.5C 445.545,1097.08 453.879,1026.75 478.5,958.5C 556.197,872.804 633.531,786.804 710.5,700.5C 775.806,668.837 844.806,653.504 917.5,654.5 Z"/></g>
<g><path style="opacity:0.988" fill="#00c4ee" d="M 917.5,654.5 C 958.333,654.571 998.333,660.238 1037.5,671.5C 1001.17,712.167 964.833,752.833 928.5,793.5C 869.185,791.029 813.185,803.362 760.5,830.5C 812.833,771.833 865.167,713.167 917.5,654.5 Z"/></g>
<g><path style="opacity:0.989" fill="#00bfee" d="M 1037.5,671.5 C 1055.08,676.137 1072.08,682.137 1088.5,689.5C 1054.8,726.859 1021.14,764.192 987.5,801.5C 968.017,797.526 948.35,794.86 928.5,793.5C 964.833,752.833 1001.17,712.167 1037.5,671.5 Z"/></g>
<g><path style="opacity:0.989" fill="#00bced" d="M 1088.5,689.5 C 1103.83,695.373 1118.5,702.373 1132.5,710.5C 1100.5,746.167 1068.5,781.833 1036.5,817.5C 1020.35,811.339 1004.02,806.006 987.5,801.5C 1021.14,764.192 1054.8,726.859 1088.5,689.5 Z"/></g>
<g><path style="opacity:0.962" fill="#00cfef" d="M 710.5,700.5 C 633.531,786.804 556.197,872.804 478.5,958.5C 517.336,855.504 583.67,775.338 677.5,718C 688.21,711.645 699.21,705.811 710.5,700.5 Z"/></g>
<g><path style="opacity:0.988" fill="#00b8ec" d="M 1132.5,710.5 C 1159.07,724.568 1183.9,741.235 1207,760.5C 1207.5,763.482 1207.66,766.482 1207.5,769.5C 1177.12,801.543 1147.46,834.209 1118.5,867.5C 1093.4,847.278 1066.07,830.611 1036.5,817.5C 1068.5,781.833 1100.5,746.167 1132.5,710.5 Z"/></g>
<g><path style="opacity:0.988" fill="#00abeb" d="M 1373.5,747.5 C 1373.5,793.833 1373.5,840.167 1373.5,886.5C 1326.8,937.201 1280.46,988.201 1234.5,1039.5C 1234.5,993.167 1234.5,946.833 1234.5,900.5C 1281.2,849.799 1327.54,798.799 1373.5,747.5 Z"/></g>
<g><path style="opacity:0.969" fill="#00b2ec" d="M 1207.5,769.5 C 1207.5,823.5 1207.5,877.5 1207.5,931.5C 1201.5,937.833 1195.5,944.167 1189.5,950.5C 1170.3,919.177 1146.64,891.51 1118.5,867.5C 1147.46,834.209 1177.12,801.543 1207.5,769.5 Z"/></g>
<g><path style="opacity:0.954" fill="#007ee6" d="M 2432.5,788.5 C 2468.11,786.937 2482.95,803.604 2477,838.5C 2469.44,852.952 2457.44,859.952 2441,859.5C 2424.97,859.654 2413.3,852.654 2406,838.5C 2398.85,813.123 2407.68,796.457 2432.5,788.5 Z"/></g>
<g><path style="opacity:0.956" fill="#00a3ea" d="M 1577.5,798.5 C 1546.96,833.584 1515.96,868.251 1484.5,902.5C 1484.33,870.165 1484.5,837.832 1485,805.5C 1515.57,800.362 1546.4,798.028 1577.5,798.5 Z"/></g>
<g><path style="opacity:0.973" fill="#009fea" d="M 1577.5,798.5 C 1615.86,796.357 1652.52,803.024 1687.5,818.5C 1673.56,835.11 1659.23,851.443 1644.5,867.5C 1626.32,857.563 1606.82,852.896 1586,853.5C 1576.18,853.449 1566.51,854.449 1557,856.5C 1556.5,892.832 1556.33,929.165 1556.5,965.5C 1532.5,991.833 1508.5,1018.17 1484.5,1044.5C 1484.5,997.167 1484.5,949.833 1484.5,902.5C 1515.96,868.251 1546.96,833.584 1577.5,798.5 Z"/></g>
<g><path style="opacity:0.806" fill="#0089e7" d="M 2144.5,800.5 C 2141.29,804.921 2137.62,808.921 2133.5,812.5C 2133.5,808.5 2133.5,804.5 2133.5,800.5C 2137.17,800.5 2140.83,800.5 2144.5,800.5 Z"/></g>
<g><path style="opacity:0.982" fill="#0085e7" d="M 2144.5,800.5 C 2197.83,800.5 2251.17,800.5 2304.5,800.5C 2287.17,820.167 2269.83,839.833 2252.5,859.5C 2236.5,859.5 2220.5,859.5 2204.5,859.5C 2204.5,877.167 2204.5,894.833 2204.5,912.5C 2180.83,938.5 2157.17,964.5 2133.5,990.5C 2133.5,931.167 2133.5,871.833 2133.5,812.5C 2137.62,808.921 2141.29,804.921 2144.5,800.5 Z"/></g>
<g><path style="opacity:0.96" fill="#0082e6" d="M 2304.5,800.5 C 2310.83,800.5 2317.17,800.5 2323.5,800.5C 2323.5,820.167 2323.5,839.833 2323.5,859.5C 2299.83,859.5 2276.17,859.5 2252.5,859.5C 2269.83,839.833 2287.17,820.167 2304.5,800.5 Z"/></g>
<g><path style="opacity:0.974" fill="#0098e9" d="M 1687.5,818.5 C 1726.15,838.776 1749.49,870.443 1757.5,913.5C 1730.54,943.799 1703.2,973.799 1675.5,1003.5C 1687.92,970.168 1688.09,936.834 1676,903.5C 1668.81,888.488 1658.31,876.488 1644.5,867.5C 1659.23,851.443 1673.56,835.11 1687.5,818.5 Z"/></g>
<g><path style="opacity:0.939" fill="#00c0ee" d="M 949.5,843.5 C 941.5,852.5 933.5,861.5 925.5,870.5C 900.827,869.467 876.494,871.801 852.5,877.5C 862.598,865.645 872.932,853.979 883.5,842.5C 905.542,839.724 927.542,840.057 949.5,843.5 Z"/></g>
<g><path style="opacity:0.941" fill="#00c3ee" d="M 883.5,842.5 C 872.932,853.979 862.598,865.645 852.5,877.5C 767.753,902.413 711.253,956.746 683,1040.5C 679.866,1051.7 677.366,1063.04 675.5,1074.5C 664.467,1085.53 653.801,1096.86 643.5,1108.5C 645.37,1023.6 678.703,954.102 743.5,900C 784.471,867.36 831.137,848.193 883.5,842.5 Z"/></g>
<g><path style="opacity:0.944" fill="#00bded" d="M 949.5,843.5 C 967.487,845.663 984.82,849.997 1001.5,856.5C 994.159,863.841 987.159,871.508 980.5,879.5C 962.44,874.879 944.107,871.879 925.5,870.5C 933.5,861.5 941.5,852.5 949.5,843.5 Z"/></g>
<g><path style="opacity:0.943" fill="#00b8ec" d="M 1001.5,856.5 C 1032.92,866.866 1060.92,882.866 1085.5,904.5C 1078.83,911.5 1072.17,918.5 1065.5,925.5C 1040.2,904.681 1011.87,889.347 980.5,879.5C 987.159,871.508 994.159,863.841 1001.5,856.5 Z"/></g>
<g><path style="opacity:0.978" fill="#008de8" d="M 2007.5,899.5 C 1995.51,913.491 1983.17,927.158 1970.5,940.5C 1958.21,928.681 1943.88,925.514 1927.5,931C 1911.15,939.512 1902.15,953.012 1900.5,971.5C 1914.5,971.5 1928.5,971.5 1942.5,971.5C 1912.84,1005.16 1882.84,1038.49 1852.5,1071.5C 1841.6,1056 1835.1,1038.66 1833,1019.5C 1832.21,1006.79 1832.37,994.121 1833.5,981.5C 1863.53,948.804 1893.2,915.804 1922.5,882.5C 1949.89,876.898 1975.89,880.732 2000.5,894C 2003.02,895.697 2005.35,897.53 2007.5,899.5 Z"/></g>
<g><path style="opacity:0.938" fill="#0090e8" d="M 1922.5,882.5 C 1893.2,915.804 1863.53,948.804 1833.5,981.5C 1838.98,937.651 1861.65,906.484 1901.5,888C 1908.31,885.381 1915.31,883.548 1922.5,882.5 Z"/></g>
<g><path style="opacity:0.926" fill="#007de6" d="M 2446.5,885.5 C 2433.17,900.825 2419.51,915.825 2405.5,930.5C 2405.5,915.5 2405.5,900.5 2405.5,885.5C 2419.17,885.5 2432.83,885.5 2446.5,885.5 Z"/></g>
<g><path style="opacity:0.966" fill="#0079e5" d="M 2446.5,885.5 C 2456.83,885.5 2467.17,885.5 2477.5,885.5C 2477.5,960.833 2477.5,1036.17 2477.5,1111.5C 2453.5,1111.5 2429.5,1111.5 2405.5,1111.5C 2405.5,1051.17 2405.5,990.833 2405.5,930.5C 2419.51,915.825 2433.17,900.825 2446.5,885.5 Z"/></g>
<g><path style="opacity:0.988" fill="#00a5ea" d="M 1373.5,886.5 C 1373.5,933.167 1373.5,979.833 1373.5,1026.5C 1324.5,1080.5 1275.5,1134.5 1226.5,1188.5C 1230.56,1169.04 1233.06,1149.38 1234,1129.5C 1233.99,1099.52 1234.16,1069.52 1234.5,1039.5C 1280.46,988.201 1326.8,937.201 1373.5,886.5 Z"/></g>
<g><path style="opacity:0.968" fill="#008ae7" d="M 2007.5,899.5 C 2017.73,906.387 2025.39,915.387 2030.5,926.5C 2002.52,958.147 1974.52,989.814 1946.5,1021.5C 1931.17,1021.5 1915.83,1021.5 1900.5,1021.5C 1902.01,1034.66 1908.35,1044.66 1919.5,1051.5C 1905.49,1066.17 1891.83,1081.17 1878.5,1096.5C 1867.88,1090.21 1859.21,1081.88 1852.5,1071.5C 1882.84,1038.49 1912.84,1005.16 1942.5,971.5C 1955.17,971.5 1967.83,971.5 1980.5,971.5C 1980.35,960.058 1977.02,949.724 1970.5,940.5C 1983.17,927.158 1995.51,913.491 2007.5,899.5 Z"/></g>
<g><path style="opacity:0.939" fill="#00b1ec" d="M 1085.5,904.5 C 1114.81,928.166 1137.48,957.166 1153.5,991.5C 1146.27,998.977 1139.27,1006.64 1132.5,1014.5C 1116.71,979.917 1094.37,950.25 1065.5,925.5C 1072.17,918.5 1078.83,911.5 1085.5,904.5 Z"/></g>
<g><path style="opacity:0.974" fill="#0080e6" d="M 2204.5,912.5 C 2204.5,917.833 2204.5,923.167 2204.5,928.5C 2241.5,928.5 2278.5,928.5 2315.5,928.5C 2315.5,948.167 2315.5,967.833 2315.5,987.5C 2278.5,987.5 2241.5,987.5 2204.5,987.5C 2204.5,1028.83 2204.5,1070.17 2204.5,1111.5C 2180.83,1111.5 2157.17,1111.5 2133.5,1111.5C 2133.5,1071.17 2133.5,1030.83 2133.5,990.5C 2157.17,964.5 2180.83,938.5 2204.5,912.5 Z"/></g>
<g><path style="opacity:0.971" fill="#0093e8" d="M 1757.5,913.5 C 1765.09,955.979 1759.59,996.645 1741,1035.5C 1723.9,1065.65 1699.06,1086.82 1666.5,1099C 1637.38,1109.24 1607.38,1114.41 1576.5,1114.5C 1596.89,1092.11 1616.89,1069.44 1636.5,1046.5C 1648.36,1039.48 1658.52,1030.48 1667,1019.5C 1670.1,1014.3 1672.93,1008.96 1675.5,1003.5C 1703.2,973.799 1730.54,943.799 1757.5,913.5 Z"/></g>
<g><path style="opacity:0.926" fill="#00bded" d="M 944.5,918.5 C 936.458,927.206 928.792,936.206 921.5,945.5C 895.52,944.33 870.52,948.663 846.5,958.5C 858.5,944.833 870.5,931.167 882.5,917.5C 903.089,914.509 923.755,914.842 944.5,918.5 Z"/></g>
<g><path style="opacity:0.937" fill="#00bfed" d="M 882.5,917.5 C 870.5,931.167 858.5,944.833 846.5,958.5C 801.444,979.554 770.777,1013.55 754.5,1060.5C 742.5,1073.5 730.5,1086.5 718.5,1099.5C 723.529,1030.7 755.196,978.198 813.5,942C 835,929.556 858,921.389 882.5,917.5 Z"/></g>
<g><path style="opacity:0.931" fill="#00b8ec" d="M 944.5,918.5 C 978.766,923.806 1009.1,937.473 1035.5,959.5C 1028.7,966.451 1022.36,973.784 1016.5,981.5C 988.558,960.069 956.891,948.069 921.5,945.5C 928.792,936.206 936.458,927.206 944.5,918.5 Z"/></g>
<g><path style="opacity:0.966" fill="#0088e7" d="M 2030.5,926.5 C 2033.75,930.659 2036.25,935.326 2038,940.5C 2046.7,966.63 2048.87,993.297 2044.5,1020.5C 2011.84,1021.5 1979.17,1021.83 1946.5,1021.5C 1974.52,989.814 2002.52,958.147 2030.5,926.5 Z"/></g>
<g><path style="opacity:0.821" fill="#00adeb" d="M 1207.5,931.5 C 1207.67,948.503 1207.5,965.503 1207,982.5C 1200.91,971.983 1195.07,961.317 1189.5,950.5C 1195.5,944.167 1201.5,937.833 1207.5,931.5 Z"/></g>
<g><path style="opacity:0.936" fill="#00b1ec" d="M 1035.5,959.5 C 1065.69,984.19 1086.69,1015.19 1098.5,1052.5C 1090.87,1061.47 1082.87,1070.13 1074.5,1078.5C 1065.88,1039.59 1046.55,1007.26 1016.5,981.5C 1022.36,973.784 1028.7,966.451 1035.5,959.5 Z"/></g>
<g><path style="opacity:0.967" fill="#0099e9" d="M 1556.5,965.5 C 1556.33,995.835 1556.5,1026.17 1557,1056.5C 1584.46,1060.54 1610.96,1057.2 1636.5,1046.5C 1616.89,1069.44 1596.89,1092.11 1576.5,1114.5C 1546.03,1115.45 1515.7,1113.95 1485.5,1110C 1484.51,1088.24 1484.17,1066.41 1484.5,1044.5C 1508.5,1018.17 1532.5,991.833 1556.5,965.5 Z"/></g>
<g><path style="opacity:0.936" fill="#00abeb" d="M 1153.5,991.5 C 1170.63,1025.34 1179.96,1061.34 1181.5,1099.5C 1171.13,1109.87 1161.13,1120.53 1151.5,1131.5C 1154.36,1090.99 1148.03,1051.99 1132.5,1014.5C 1139.27,1006.64 1146.27,998.977 1153.5,991.5 Z"/></g>
<g><path style="opacity:0.982" fill="#00c4ee" d="M 614.5,992.5 C 592.422,1048.23 585.422,1105.56 593.5,1164.5C 557.175,1205.49 520.508,1246.16 483.5,1286.5C 468.34,1248.86 458.34,1209.86 453.5,1169.5C 506.933,1110.31 560.6,1051.31 614.5,992.5 Z"/></g>
<g><path style="opacity:0.99" fill="#009fea" d="M 1373.5,1026.5 C 1373.48,1063.66 1373.48,1100.66 1373.5,1137.5C 1372.52,1149.35 1371.18,1161.01 1369.5,1172.5C 1251.2,1303.81 1132.86,1435.14 1014.5,1566.5C 969.332,1575.96 923.665,1579.29 877.5,1576.5C 924.204,1525.13 970.537,1473.46 1016.5,1421.5C 1126.5,1379.84 1196.5,1302.17 1226.5,1188.5C 1275.5,1134.5 1324.5,1080.5 1373.5,1026.5 Z"/></g>
<g><path style="opacity:0.957" fill="#0086e7" d="M 1919.5,1051.5 C 1933.87,1059.04 1949.21,1062.38 1965.5,1061.5C 1985.97,1061.48 2005.97,1058.48 2025.5,1052.5C 2028.3,1068.02 2031.3,1083.52 2034.5,1099C 2034.17,1099.83 2033.83,1100.67 2033.5,1101.5C 2014.92,1109.14 1995.59,1113.64 1975.5,1115C 1946.51,1118.38 1918.51,1114.71 1891.5,1104C 1887,1101.64 1882.66,1099.14 1878.5,1096.5C 1891.83,1081.17 1905.49,1066.17 1919.5,1051.5 Z"/></g>
<g><path style="opacity:0.946" fill="#00abeb" d="M 1098.5,1052.5 C 1114.34,1107.75 1108.18,1160.42 1080,1210.5C 1077.72,1214.08 1075.22,1217.41 1072.5,1220.5C 1060.47,1233.2 1048.8,1246.2 1037.5,1259.5C 989.87,1298.66 935.537,1312.66 874.5,1301.5C 882.232,1293.11 889.565,1284.44 896.5,1275.5C 966.265,1279.04 1019.43,1251.37 1056,1192.5C 1075.62,1156.69 1081.78,1118.69 1074.5,1078.5C 1082.87,1070.13 1090.87,1061.47 1098.5,1052.5 Z"/></g>
<g><path style="opacity:0.934" fill="#00bded" d="M 754.5,1060.5 C 747.379,1085.49 745.712,1110.82 749.5,1136.5C 741.167,1145.17 732.833,1153.83 724.5,1162.5C 718.933,1141.78 716.933,1120.78 718.5,1099.5C 730.5,1086.5 742.5,1073.5 754.5,1060.5 Z"/></g>
<g><path style="opacity:0.94" fill="#00c0ee" d="M 675.5,1074.5 C 671.534,1099.15 671.534,1123.82 675.5,1148.5C 666.805,1156.89 658.805,1165.89 651.5,1175.5C 645.649,1153.68 642.982,1131.35 643.5,1108.5C 653.801,1096.86 664.467,1085.53 675.5,1074.5 Z"/></g>
<g><path style="opacity:0.943" fill="#00a5ea" d="M 1181.5,1099.5 C 1182.21,1202.27 1140.21,1282.1 1055.5,1339C 1016.67,1363.22 974.333,1376.72 928.5,1379.5C 938.539,1368.8 948.206,1357.8 957.5,1346.5C 1039.8,1328.35 1098.3,1281.01 1133,1204.5C 1142.78,1181.05 1148.95,1156.71 1151.5,1131.5C 1161.13,1120.53 1171.13,1109.87 1181.5,1099.5 Z"/></g>
<g><path style="opacity:0.937" fill="#00b8ec" d="M 749.5,1136.5 C 754.972,1171.44 769.972,1201.44 794.5,1226.5C 788.167,1233.83 781.833,1241.17 775.5,1248.5C 750.854,1224.57 733.854,1195.9 724.5,1162.5C 732.833,1153.83 741.167,1145.17 749.5,1136.5 Z"/></g>
<g><path style="opacity:0.938" fill="#00bded" d="M 675.5,1148.5 C 678.671,1166.68 683.671,1184.35 690.5,1201.5C 683.167,1209.17 675.833,1216.83 668.5,1224.5C 660.648,1208.95 654.982,1192.61 651.5,1175.5C 658.805,1165.89 666.805,1156.89 675.5,1148.5 Z"/></g>
<g><path style="opacity:0.986" fill="#00bfee" d="M 593.5,1164.5 C 596.912,1184.15 601.912,1203.48 608.5,1222.5C 574.5,1260.17 540.5,1297.83 506.5,1335.5C 497.399,1319.37 489.732,1303.04 483.5,1286.5C 520.508,1246.16 557.175,1205.49 593.5,1164.5 Z"/></g>
<g><path style="opacity:0.985" fill="#009ae9" d="M 1369.5,1172.5 C 1352.24,1300.22 1293.24,1403.72 1192.5,1483C 1139.31,1523.42 1079.97,1551.26 1014.5,1566.5C 1132.86,1435.14 1251.2,1303.81 1369.5,1172.5 Z"/></g>
<g><path style="opacity:0.953" fill="#008ae7" d="M 1794.5,1188.5 C 1787.92,1196.01 1781.59,1203.68 1775.5,1211.5C 1766.21,1210.87 1758.38,1213.87 1752,1220.5C 1748.64,1226.08 1748.14,1231.74 1750.5,1237.5C 1743.43,1245.23 1736.77,1253.23 1730.5,1261.5C 1721.44,1253.86 1717.1,1244.03 1717.5,1232C 1719.46,1207.7 1732.46,1193.03 1756.5,1188C 1762.61,1186.96 1768.78,1186.46 1775,1186.5C 1781.74,1186.31 1788.24,1186.98 1794.5,1188.5 Z"/></g>
<g><path style="opacity:0.945" fill="#0080e6" d="M 2049.5,1326.5 C 2042.83,1333.18 2036.49,1340.18 2030.5,1347.5C 2009.13,1351.65 1987.79,1351.48 1966.5,1347C 1936.62,1338.12 1919.12,1318.29 1914,1287.5C 1908.55,1257.45 1916.05,1231.29 1936.5,1209C 1950.86,1196.65 1967.52,1189.32 1986.5,1187C 1997.17,1186.33 2007.83,1186.33 2018.5,1187C 2027.13,1188.07 2035.46,1190.24 2043.5,1193.5C 2044.64,1195.42 2044.81,1197.42 2044,1199.5C 2042.13,1205.44 2040.46,1211.44 2039,1217.5C 2038.44,1218.02 2037.77,1218.36 2037,1218.5C 2030.79,1215.66 2024.29,1213.82 2017.5,1213C 2007.83,1212.33 1998.17,1212.33 1988.5,1213C 1959.59,1219.78 1944.92,1238.11 1944.5,1268C 1944.41,1286.09 1950.75,1301.43 1963.5,1314C 1980.92,1325.85 1999.76,1328.69 2020,1322.5C 2020.5,1309.5 2020.67,1296.5 2020.5,1283.5C 2010.83,1283.5 2001.17,1283.5 1991.5,1283.5C 1991.5,1275.5 1991.5,1267.5 1991.5,1259.5C 2010.83,1259.5 2030.17,1259.5 2049.5,1259.5C 2049.5,1281.83 2049.5,1304.17 2049.5,1326.5 Z"/></g>
<g><path style="opacity:0.939" fill="#0075e5" d="M 2375.5,1234.5 C 2389.47,1218.86 2403.47,1203.19 2417.5,1187.5C 2433.42,1185.35 2449.09,1186.52 2464.5,1191C 2467.6,1191.85 2470.27,1193.35 2472.5,1195.5C 2470.09,1201.26 2468.09,1206.76 2466.5,1212C 2466.83,1212.33 2467.17,1212.67 2467.5,1213C 2466.33,1215.18 2465.16,1217.35 2464,1219.5C 2448.73,1211.41 2432.9,1209.91 2416.5,1215C 2408.59,1219.67 2405.75,1226.5 2408,1235.5C 2412.67,1242.83 2419.17,1247.99 2427.5,1251C 2439.96,1255.15 2451.63,1260.81 2462.5,1268C 2479.38,1283.37 2483.22,1301.54 2474,1322.5C 2464.59,1338.8 2450.42,1347.97 2431.5,1350C 2411.65,1352.58 2392.65,1349.75 2374.5,1341.5C 2373.36,1339.58 2373.19,1337.58 2374,1335.5C 2375.67,1329.5 2377.33,1323.5 2379,1317.5C 2379.39,1316.57 2380.05,1315.91 2381,1315.5C 2399.16,1325.07 2417.99,1326.91 2437.5,1321C 2446.02,1314.78 2448.52,1306.61 2445,1296.5C 2442.09,1290.63 2437.59,1286.46 2431.5,1284C 2416.85,1279.17 2403.18,1272.51 2390.5,1264C 2381.12,1256.41 2376.12,1246.58 2375.5,1234.5 Z"/></g>
<g><path style="opacity:0.884" fill="#0076e5" d="M 2417.5,1187.5 C 2403.47,1203.19 2389.47,1218.86 2375.5,1234.5C 2377.45,1208.21 2391.45,1192.54 2417.5,1187.5 Z"/></g>
<g><path style="opacity:0.901" fill="#0096e9" d="M 1508.5,1188.5 C 1501.24,1198.1 1493.24,1207.1 1484.5,1215.5C 1484.5,1206.5 1484.5,1197.5 1484.5,1188.5C 1492.5,1188.5 1500.5,1188.5 1508.5,1188.5 Z"/></g>
<g><path style="opacity:0.937" fill="#0092e8" d="M 1508.5,1188.5 C 1510.83,1188.5 1513.17,1188.5 1515.5,1188.5C 1515.5,1237.5 1515.5,1286.5 1515.5,1335.5C 1511.46,1339.53 1507.8,1343.87 1504.5,1348.5C 1497.83,1348.5 1491.17,1348.5 1484.5,1348.5C 1484.5,1304.17 1484.5,1259.83 1484.5,1215.5C 1493.24,1207.1 1501.24,1198.1 1508.5,1188.5 Z"/></g>
<g><path style="opacity:0.935" fill="#0091e8" d="M 1612.5,1227.5 C 1606.17,1235.16 1599.51,1242.49 1592.5,1249.5C 1588.74,1242.31 1585.24,1234.98 1582,1227.5C 1581.91,1238.83 1582.07,1250.16 1582.5,1261.5C 1572.6,1271.64 1562.93,1281.98 1553.5,1292.5C 1553.5,1257.83 1553.5,1223.17 1553.5,1188.5C 1565.5,1188.33 1577.5,1188.5 1589.5,1189C 1597.57,1201.64 1605.23,1214.47 1612.5,1227.5 Z"/></g>
<g><path style="opacity:0.961" fill="#008de8" d="M 1682.5,1261.5 C 1673.27,1270.98 1664.27,1280.64 1655.5,1290.5C 1654.5,1256.67 1654.17,1222.67 1654.5,1188.5C 1663.83,1188.5 1673.17,1188.5 1682.5,1188.5C 1682.5,1212.83 1682.5,1237.17 1682.5,1261.5 Z"/></g>
<g><path style="opacity:0.895" fill="#0088e7" d="M 1794.5,1188.5 C 1801,1189.56 1807.33,1191.22 1813.5,1193.5C 1811.83,1202.5 1809.16,1211.17 1805.5,1219.5C 1796.09,1214.65 1786.09,1211.98 1775.5,1211.5C 1781.59,1203.68 1787.92,1196.01 1794.5,1188.5 Z"/></g>
<g><path style="opacity:0.966" fill="#0085e7" d="M 1881.5,1271.5 C 1871.5,1282.17 1861.5,1292.83 1851.5,1303.5C 1851.5,1265.17 1851.5,1226.83 1851.5,1188.5C 1861.5,1188.5 1871.5,1188.5 1881.5,1188.5C 1881.5,1216.17 1881.5,1243.83 1881.5,1271.5 Z"/></g>
<g><path style="opacity:0.962" fill="#007de6" d="M 2116.5,1251.5 C 2106.88,1263.46 2096.54,1274.79 2085.5,1285.5C 2085.5,1253.17 2085.5,1220.83 2085.5,1188.5C 2095.5,1188.5 2105.5,1188.5 2115.5,1188.5C 2115.17,1209.67 2115.5,1230.67 2116.5,1251.5 Z"/></g>
<g><path style="opacity:0.961" fill="#007ae5" d="M 2085.5,1285.5 C 2096.54,1274.79 2106.88,1263.46 2116.5,1251.5C 2138.17,1251.5 2159.83,1251.5 2181.5,1251.5C 2181.5,1230.5 2181.5,1209.5 2181.5,1188.5C 2191.5,1188.5 2201.5,1188.5 2211.5,1188.5C 2211.5,1241.83 2211.5,1295.17 2211.5,1348.5C 2201.5,1348.5 2191.5,1348.5 2181.5,1348.5C 2181.5,1325.17 2181.5,1301.83 2181.5,1278.5C 2159.5,1278.5 2137.5,1278.5 2115.5,1278.5C 2115.5,1301.83 2115.5,1325.17 2115.5,1348.5C 2105.5,1348.5 2095.5,1348.5 2085.5,1348.5C 2085.5,1327.5 2085.5,1306.5 2085.5,1285.5 Z"/></g>
<g><path style="opacity:0.954" fill="#0078e5" d="M 2311.5,1306.5 C 2301.13,1316.87 2291.13,1327.53 2281.5,1338.5C 2281.5,1297.17 2281.5,1255.83 2281.5,1214.5C 2266.17,1214.5 2250.83,1214.5 2235.5,1214.5C 2235.5,1205.83 2235.5,1197.17 2235.5,1188.5C 2276.17,1188.5 2316.83,1188.5 2357.5,1188.5C 2357.5,1197.17 2357.5,1205.83 2357.5,1214.5C 2342.17,1214.5 2326.83,1214.5 2311.5,1214.5C 2311.5,1245.17 2311.5,1275.83 2311.5,1306.5 Z"/></g>
<g><path style="opacity:0.937" fill="#00b8ec" d="M 690.5,1201.5 C 703.292,1232.12 721.292,1259.12 744.5,1282.5C 737.696,1289.45 731.363,1296.78 725.5,1304.5C 701.102,1281.71 682.102,1255.05 668.5,1224.5C 675.833,1216.83 683.167,1209.17 690.5,1201.5 Z"/></g>
<g><path style="opacity:0.624" fill="#00a8eb" d="M 1072.5,1220.5 C 1063.36,1235.64 1051.7,1248.64 1037.5,1259.5C 1048.8,1246.2 1060.47,1233.2 1072.5,1220.5 Z"/></g>
<g><path style="opacity:0.986" fill="#00bced" d="M 608.5,1222.5 C 614.145,1238.79 621.145,1254.45 629.5,1269.5C 596.833,1305.17 564.167,1340.83 531.5,1376.5C 522.413,1363.33 514.08,1349.67 506.5,1335.5C 540.5,1297.83 574.5,1260.17 608.5,1222.5 Z"/></g>
<g><path style="opacity:0.945" fill="#00b1ec" d="M 794.5,1226.5 C 822.642,1254.57 856.642,1270.9 896.5,1275.5C 889.565,1284.44 882.232,1293.11 874.5,1301.5C 835.82,1294 802.82,1276.33 775.5,1248.5C 781.833,1241.17 788.167,1233.83 794.5,1226.5 Z"/></g>
<g><path style="opacity:0.936" fill="#008de8" d="M 1612.5,1227.5 C 1627,1249.15 1640,1271.82 1651.5,1295.5C 1644.7,1302.45 1638.36,1309.78 1632.5,1317.5C 1618.17,1295.53 1604.84,1272.86 1592.5,1249.5C 1599.51,1242.49 1606.17,1235.16 1612.5,1227.5 Z"/></g>
<g><path style="opacity:0.939" fill="#0086e7" d="M 1750.5,1237.5 C 1753.69,1241.85 1757.69,1245.35 1762.5,1248C 1774.07,1252.45 1785.4,1257.45 1796.5,1263C 1816.77,1275.46 1823.94,1293.29 1818,1316.5C 1814.1,1328.4 1806.6,1337.23 1795.5,1343C 1779.21,1350.1 1762.21,1352.43 1744.5,1350C 1734.33,1348.61 1724.66,1345.61 1715.5,1341C 1715.04,1340.59 1714.71,1340.09 1714.5,1339.5C 1716.49,1333.22 1718.32,1326.88 1720,1320.5C 1720.26,1318.35 1721.26,1316.68 1723,1315.5C 1737.92,1323.35 1753.76,1326.18 1770.5,1324C 1785.11,1320.28 1790.61,1311.11 1787,1296.5C 1784.87,1293.37 1782.37,1290.54 1779.5,1288C 1766.62,1281.81 1753.62,1275.81 1740.5,1270C 1736.54,1267.86 1733.2,1265.03 1730.5,1261.5C 1736.77,1253.23 1743.43,1245.23 1750.5,1237.5 Z"/></g>
<g><path style="opacity:0.928" fill="#008ee8" d="M 1582.5,1261.5 C 1582.5,1290.5 1582.5,1319.5 1582.5,1348.5C 1572.83,1348.5 1563.17,1348.5 1553.5,1348.5C 1553.5,1329.83 1553.5,1311.17 1553.5,1292.5C 1562.93,1281.98 1572.6,1271.64 1582.5,1261.5 Z"/></g>
<g><path style="opacity:0.956" fill="#008ae7" d="M 1682.5,1261.5 C 1682.5,1279.17 1682.5,1296.83 1682.5,1314.5C 1671.71,1325.41 1661.38,1336.75 1651.5,1348.5C 1644.42,1338.68 1638.08,1328.34 1632.5,1317.5C 1638.36,1309.78 1644.7,1302.45 1651.5,1295.5C 1652.93,1298.02 1654.09,1300.69 1655,1303.5C 1655.5,1299.18 1655.67,1294.85 1655.5,1290.5C 1664.27,1280.64 1673.27,1270.98 1682.5,1261.5 Z"/></g>
<g><path style="opacity:0.987" fill="#00b8ec" d="M 629.5,1269.5 C 645.093,1297.75 664.093,1323.42 686.5,1346.5C 655.833,1380.83 625.167,1415.17 594.5,1449.5C 589.908,1446.41 585.742,1442.75 582,1438.5C 563.818,1418.83 546.985,1398.16 531.5,1376.5C 564.167,1340.83 596.833,1305.17 629.5,1269.5 Z"/></g>
<g><path style="opacity:0.959" fill="#0082e6" d="M 1881.5,1271.5 C 1881.5,1297.17 1881.5,1322.83 1881.5,1348.5C 1871.5,1348.5 1861.5,1348.5 1851.5,1348.5C 1851.5,1333.5 1851.5,1318.5 1851.5,1303.5C 1861.5,1292.83 1871.5,1282.17 1881.5,1271.5 Z"/></g>
<g><path style="opacity:0.946" fill="#00b1ec" d="M 744.5,1282.5 C 771.832,1308.45 803.499,1327.45 839.5,1339.5C 832.841,1347.49 825.841,1355.16 818.5,1362.5C 783.06,1349.96 752.06,1330.63 725.5,1304.5C 731.363,1296.78 737.696,1289.45 744.5,1282.5 Z"/></g>
<g><path style="opacity:0.963" fill="#0075e5" d="M 2311.5,1306.5 C 2311.5,1320.5 2311.5,1334.5 2311.5,1348.5C 2301.5,1348.5 2291.5,1348.5 2281.5,1348.5C 2281.5,1345.17 2281.5,1341.83 2281.5,1338.5C 2291.13,1327.53 2301.13,1316.87 2311.5,1306.5 Z"/></g>
<g><path style="opacity:0.927" fill="#0088e7" d="M 1682.5,1314.5 C 1682.5,1325.83 1682.5,1337.17 1682.5,1348.5C 1672.17,1348.5 1661.83,1348.5 1651.5,1348.5C 1661.38,1336.75 1671.71,1325.41 1682.5,1314.5 Z"/></g>
<g><path style="opacity:0.854" fill="#007be6" d="M 2049.5,1326.5 C 2049.5,1331.83 2049.5,1337.17 2049.5,1342.5C 2043.12,1344.01 2036.79,1345.68 2030.5,1347.5C 2036.49,1340.18 2042.83,1333.18 2049.5,1326.5 Z"/></g>
<g><path style="opacity:0.789" fill="#008ee8" d="M 1515.5,1335.5 C 1515.5,1339.83 1515.5,1344.17 1515.5,1348.5C 1511.83,1348.5 1508.17,1348.5 1504.5,1348.5C 1507.8,1343.87 1511.46,1339.53 1515.5,1335.5 Z"/></g>
<g><path style="opacity:0.947" fill="#00abeb" d="M 839.5,1339.5 C 878.263,1351.19 917.597,1353.53 957.5,1346.5C 948.206,1357.8 938.539,1368.8 928.5,1379.5C 896.891,1381.27 865.891,1377.77 835.5,1369C 829.539,1367.3 823.872,1365.13 818.5,1362.5C 825.841,1355.16 832.841,1347.49 839.5,1339.5 Z"/></g>
<g><path style="opacity:0.988" fill="#00b1ec" d="M 686.5,1346.5 C 713.566,1371.89 743.899,1392.55 777.5,1408.5C 745.5,1444.17 713.5,1479.83 681.5,1515.5C 649.637,1497.31 620.637,1475.31 594.5,1449.5C 625.167,1415.17 655.833,1380.83 686.5,1346.5 Z"/></g>
<g><path style="opacity:0.986" fill="#00abeb" d="M 777.5,1408.5 C 809.039,1422.97 842.039,1432.3 876.5,1436.5C 841.167,1476.17 805.833,1515.83 770.5,1555.5C 739.217,1545.63 709.551,1532.3 681.5,1515.5C 713.5,1479.83 745.5,1444.17 777.5,1408.5 Z"/></g>
<g><path style="opacity:0.983" fill="#00a5ea" d="M 1016.5,1421.5 C 970.537,1473.46 924.204,1525.13 877.5,1576.5C 840.982,1573.73 805.316,1566.73 770.5,1555.5C 805.833,1515.83 841.167,1476.17 876.5,1436.5C 924.219,1441 970.885,1436 1016.5,1421.5 Z"/></g>
</svg>
